<?xml version="1.0" encoding="utf-8"?>
<!-- Generator: Adobe Illustrator 26.0.1, SVG Export Plug-In . SVG Version: 6.00 Build 0)  -->
<svg version="1.1" id="Layer_1" xmlns="http://www.w3.org/2000/svg" xmlns:xlink="http://www.w3.org/1999/xlink" x="0px" y="0px"
	 viewBox="0 0 1500 710.57" style="enable-background:new 0 0 1500 710.57;" xml:space="preserve">
<style type="text/css">
	.st0{fill:#390094;}
	.st1{fill:#FFFFFF;}
	.st2{fill:#1D1D1B;}
	.st3{fill:#3C3C3B;}
</style>
<g>
	<polygon class="st0" points="294.18,170.31 294.18,282.76 181.73,282.76 181.73,395.2 69.28,395.2 69.28,282.75 181.73,170.31 	"/>
	<polygon class="st0" points="349.71,338.53 349.71,450.98 349.7,450.98 237.26,563.43 124.81,563.43 124.81,450.98 237.26,450.98 
		237.26,338.53 	"/>
</g>
<g>
	<path class="st0" d="M518.52,276.21c0,5.45-1,10.8-2.99,16.04c-1.99,5.25-5.05,10.03-9.17,14.35c-4.12,4.32-9.37,7.74-15.74,10.26
		c-6.38,2.53-14.08,3.79-23.12,3.79h-29.89v50.82h-30.69V231.98h60.58c11.56,0,21.09,2.03,28.6,6.08
		c7.5,4.05,13.12,9.43,16.84,16.14C516.66,260.91,518.52,268.24,518.52,276.21z M466.11,294.95c4.78,0,8.67-0.73,11.66-2.19
		c2.99-1.46,5.28-3.62,6.87-6.48c1.59-2.86,2.39-6.21,2.39-10.06c0-5.84-1.69-10.39-5.08-13.65c-3.39-3.25-8.67-4.88-15.84-4.88
		h-28.5v37.26H466.11z"/>
	<path class="st0" d="M593.85,231.98c11.29,0,20.69,2.03,28.2,6.08c7.5,4.05,13.15,9.43,16.94,16.14
		c3.79,6.71,5.68,14.05,5.68,22.02c0,5.45-1,10.8-2.99,16.04c-1.99,5.25-5.05,10.03-9.17,14.35c-4.12,4.32-9.37,7.74-15.74,10.26
		c-6.38,2.53-14.08,3.79-23.12,3.79h-29.89v50.82h-30.69V231.98H593.85z M613.18,276.21c0-5.71-1.69-10.23-5.08-13.55
		c-3.39-3.32-8.6-4.98-15.64-4.98h-28.7v37.26h28.5c4.78,0,8.7-0.73,11.76-2.19c3.05-1.46,5.35-3.62,6.87-6.48
		C612.41,283.42,613.18,280.07,613.18,276.21z M609.99,310.29l37.26,61.18h-34.27l-35.47-61.18H609.99z"/>
	<path class="st0" d="M726.96,372.86c-9.83,0-19.07-1.72-27.7-5.18c-8.64-3.45-16.21-8.34-22.72-14.65
		c-6.51-6.31-11.63-13.82-15.34-22.52c-3.72-8.7-5.58-18.3-5.58-28.79c0-10.49,1.86-20.09,5.58-28.79
		c3.72-8.7,8.83-16.21,15.34-22.52c6.51-6.31,14.08-11.19,22.72-14.65c8.63-3.45,17.87-5.18,27.7-5.18c9.96,0,19.26,1.73,27.9,5.18
		c8.63,3.46,16.21,8.34,22.72,14.65c6.51,6.31,11.62,13.82,15.34,22.52c3.72,8.7,5.58,18.3,5.58,28.79c0,10.5-1.86,20.1-5.58,28.79
		c-3.72,8.7-8.84,16.21-15.34,22.52c-6.51,6.31-14.08,11.19-22.72,14.65C746.22,371.14,736.92,372.86,726.96,372.86z M726.96,346.56
		c7.97,0,14.95-1.92,20.92-5.78c5.98-3.85,10.69-9.13,14.15-15.84c3.45-6.71,5.18-14.45,5.18-23.22c0-8.9-1.73-16.7-5.18-23.41
		c-3.46-6.71-8.17-11.96-14.15-15.74c-5.98-3.79-12.95-5.68-20.92-5.68c-7.84,0-14.78,1.89-20.82,5.68
		c-6.05,3.79-10.76,9.04-14.15,15.74c-3.39,6.71-5.08,14.52-5.08,23.41c0,8.77,1.69,16.51,5.08,23.22
		c3.39,6.71,8.1,11.99,14.15,15.84C712.18,344.63,719.12,346.56,726.96,346.56z"/>
	<path class="st0" d="M812.85,231.98h101.23v25.71h-70.54v30.69h52.81v24.71h-52.81v58.39h-30.69V231.98z"/>
	<path class="st0" d="M927.83,231.98h30.69v139.49h-30.69V231.98z"/>
	<path class="st0" d="M973.06,231.98h117.37v25.71h-43.44v113.79h-30.69V257.68h-43.24V231.98z"/>
	<path class="st0" d="M1128.29,330.42c0.66,3.85,2.09,7.07,4.28,9.66s4.95,4.48,8.27,5.68c3.32,1.19,7.04,1.79,11.16,1.79
		c7.04,0,12.42-1.53,16.14-4.58c3.72-3.05,5.58-6.84,5.58-11.36c0-3.72-1.13-6.74-3.39-9.07c-2.26-2.32-5.38-4.28-9.37-5.88
		s-8.57-3.19-13.75-4.78c-5.45-1.46-10.83-3.12-16.14-4.98c-5.32-1.86-10.2-4.25-14.65-7.17c-4.45-2.92-8.01-6.71-10.66-11.36
		c-2.66-4.65-3.92-10.49-3.79-17.54c0-8.5,2.19-15.81,6.58-21.92c4.38-6.11,10.29-10.69,17.74-13.75
		c7.44-3.05,16.07-4.58,25.91-4.58c8.63,0,16.34,1.23,23.12,3.69c6.78,2.46,12.42,6.11,16.94,10.96c4.51,4.85,7.77,10.73,9.76,17.64
		l-28.3,6.38c-0.67-2.92-2.03-5.41-4.09-7.47c-2.06-2.06-4.55-3.59-7.47-4.58c-2.92-1-5.91-1.56-8.97-1.69
		c-3.72,0-7.07,0.6-10.06,1.79c-2.99,1.2-5.38,2.92-7.17,5.18c-1.79,2.26-2.69,4.92-2.69,7.97c0,3.19,1.03,5.81,3.09,7.87
		c2.06,2.06,4.85,3.85,8.37,5.38c3.52,1.53,7.47,2.96,11.86,4.28c5.45,1.73,10.99,3.59,16.64,5.58c5.64,1.99,10.86,4.55,15.64,7.67
		c4.78,3.12,8.63,7.11,11.56,11.96c2.92,4.85,4.38,10.86,4.38,18.03c0,7.84-1.86,14.88-5.58,21.12
		c-3.72,6.25-9.33,11.23-16.84,14.95c-7.51,3.72-16.97,5.58-28.4,5.58c-9.43,0-17.97-1.36-25.61-4.09
		c-7.64-2.72-13.92-6.78-18.83-12.16c-4.92-5.38-8.17-11.86-9.76-19.43L1128.29,330.42z"/>
	<path class="st0" d="M1320.19,345.17v26.3h-105.41v-20.92l53.8-50.81c12.35-11.76,14.55-18.93,14.55-25.71
		c0-10.96-7.57-17.34-22.32-17.34c-11.96,0-22.12,4.58-28.89,13.95l-23.51-15.14c10.76-15.74,30.29-25.9,55.4-25.9
		c31.09,0,51.81,15.94,51.81,41.25c0,13.55-3.79,25.9-23.31,44.04l-32.08,30.29H1320.19z"/>
	<path class="st0" d="M1455.3,342.18h-22.72v29.29h-31.48v-29.29h-75.12v-21.72l65.76-88.47h33.88l-60.98,83.89h37.46v-26.1h30.49
		v26.1h22.72V342.18z"/>
</g>
<g>
	<path class="st3" d="M397.36,484.77l5.48-12.15c5.88,4.28,14.65,7.27,23.02,7.27c9.56,0,13.45-3.19,13.45-7.47
		c0-13.05-40.55-4.08-40.55-29.99c0-11.86,9.56-21.72,29.39-21.72c8.77,0,17.73,2.09,24.21,6.18l-4.98,12.25
		c-6.48-3.69-13.15-5.48-19.33-5.48c-9.56,0-13.25,3.59-13.25,7.97c0,12.85,40.55,3.99,40.55,29.59c0,11.66-9.66,21.62-29.59,21.62
		C414.7,492.84,403.54,489.55,397.36,484.77z"/>
	<path class="st3" d="M495.21,456.77c0-21.02,16.14-36.07,37.86-36.07c12.06,0,22.12,4.38,28.69,12.35l-10.36,9.57
		c-4.68-5.38-10.56-8.17-17.54-8.17c-13.05,0-22.32,9.17-22.32,22.32c0,13.15,9.27,22.32,22.32,22.32c6.97,0,12.85-2.79,17.54-8.27
		l10.36,9.57c-6.58,8.07-16.64,12.45-28.79,12.45C511.35,492.84,495.21,477.8,495.21,456.77z"/>
	<path class="st3" d="M650.34,476.7h-32.38l-6.18,14.95h-16.54l31.09-69.74h15.94l31.19,69.74h-16.94L650.34,476.7z M645.26,464.44
		l-11.06-26.7l-11.06,26.7H645.26z"/>
	<path class="st3" d="M713.91,421.9h16.14v56.59h34.97v13.15h-51.11V421.9z"/>
	<path class="st3" d="M867.74,447.21c0,15.54-11.66,25.21-30.29,25.21h-14.05v19.23h-16.14V421.9h30.19
		C856.09,421.9,867.74,431.57,867.74,447.21z M851.4,447.21c0-7.67-4.98-12.16-14.84-12.16h-13.15v24.21h13.15
		C846.42,459.26,851.4,454.78,851.4,447.21z"/>
	<path class="st3" d="M966.38,478.69v12.95h-54V421.9h52.71v12.95h-36.66V450h32.38v12.55h-32.38v16.14H966.38z"/>
	<path class="st3" d="M1056.85,491.65l-13.45-19.43h-0.8h-14.05v19.43h-16.14V421.9h30.19c18.63,0,30.29,9.66,30.29,25.31
		c0,10.46-5.28,18.13-14.35,22.02l15.64,22.42H1056.85z M1041.71,435.05h-13.15v24.31h13.15c9.86,0,14.84-4.58,14.84-12.15
		C1056.55,439.54,1051.57,435.05,1041.71,435.05z"/>
</g>
</svg>
